ISO-10303-21;
HEADER;
/* Generated by software containing ST-Developer
 * from STEP Tools, Inc. (www.steptools.com) 
 */

FILE_DESCRIPTION(
/* description */ (''),
/* implementation_level */ '2;1');

FILE_NAME(
/* name */ '21_HUB_Hip_Output.step',
/* time_stamp */ '2026-09-08T16:15:18+09:00',
/* author */ (''),
/* organization */ (''),
/* preprocessor_version */ 'ST-DEVELOPER v20.2',
/* originating_system */ 'Autodesk Translation Framework v15.15.0.0',
/* authorisation */ '');

FILE_SCHEMA (('AUTOMOTIVE_DESIGN { 1 0 10303 214 3 1 1 }'));
ENDSEC;

DATA;
#10=MECHANICAL_DESIGN_GEOMETRIC_PRESENTATION_REPRESENTATION('',(#13),#842);
#11=SHAPE_REPRESENTATION_RELATIONSHIP('SRR','None',#849,#12);
#12=ADVANCED_BREP_SHAPE_REPRESENTATION('',(#14),#841);
#13=STYLED_ITEM('',(#858),#14);
#14=MANIFOLD_SOLID_BREP('hip_output_hub',#474);
#15=FACE_BOUND('',#106,.T.);
#16=FACE_BOUND('',#109,.T.);
#17=FACE_BOUND('',#111,.T.);
#18=FACE_BOUND('',#112,.T.);
#19=FACE_BOUND('',#113,.T.);
#20=FACE_BOUND('',#114,.T.);
#21=FACE_BOUND('',#115,.T.);
#22=FACE_BOUND('',#116,.T.);
#23=FACE_BOUND('',#117,.T.);
#24=FACE_BOUND('',#118,.T.);
#25=FACE_BOUND('',#119,.T.);
#26=FACE_BOUND('',#122,.T.);
#27=FACE_BOUND('',#123,.T.);
#28=FACE_BOUND('',#124,.T.);
#29=FACE_BOUND('',#125,.T.);
#30=FACE_BOUND('',#126,.T.);
#31=FACE_BOUND('',#127,.T.);
#32=FACE_BOUND('',#128,.T.);
#33=FACE_BOUND('',#129,.T.);
#34=FACE_BOUND('',#130,.T.);
#35=FACE_BOUND('',#133,.T.);
#36=FACE_BOUND('',#134,.T.);
#37=FACE_BOUND('',#135,.T.);
#38=FACE_BOUND('',#136,.T.);
#39=FACE_BOUND('',#137,.T.);
#40=FACE_BOUND('',#138,.T.);
#41=FACE_BOUND('',#139,.T.);
#42=PLANE('',#515);
#43=PLANE('',#519);
#44=PLANE('',#523);
#45=PLANE('',#527);
#46=PLANE('',#531);
#47=PLANE('',#535);
#48=PLANE('',#542);
#49=PLANE('',#546);
#50=PLANE('',#547);
#51=PLANE('',#552);
#52=PLANE('',#555);
#53=FACE_OUTER_BOUND('',#83,.T.);
#54=FACE_OUTER_BOUND('',#84,.T.);
#55=FACE_OUTER_BOUND('',#85,.T.);
#56=FACE_OUTER_BOUND('',#86,.T.);
#57=FACE_OUTER_BOUND('',#87,.T.);
#58=FACE_OUTER_BOUND('',#88,.T.);
#59=FACE_OUTER_BOUND('',#89,.T.);
#60=FACE_OUTER_BOUND('',#90,.T.);
#61=FACE_OUTER_BOUND('',#91,.T.);
#62=FACE_OUTER_BOUND('',#92,.T.);
#63=FACE_OUTER_BOUND('',#93,.T.);
#64=FACE_OUTER_BOUND('',#94,.T.);
#65=FACE_OUTER_BOUND('',#95,.T.);
#66=FACE_OUTER_BOUND('',#96,.T.);
#67=FACE_OUTER_BOUND('',#97,.T.);
#68=FACE_OUTER_BOUND('',#98,.T.);
#69=FACE_OUTER_BOUND('',#99,.T.);
#70=FACE_OUTER_BOUND('',#100,.T.);
#71=FACE_OUTER_BOUND('',#101,.T.);
#72=FACE_OUTER_BOUND('',#102,.T.);
#73=FACE_OUTER_BOUND('',#103,.T.);
#74=FACE_OUTER_BOUND('',#104,.T.);
#75=FACE_OUTER_BOUND('',#105,.T.);
#76=FACE_OUTER_BOUND('',#107,.T.);
#77=FACE_OUTER_BOUND('',#108,.T.);
#78=FACE_OUTER_BOUND('',#110,.T.);
#79=FACE_OUTER_BOUND('',#120,.T.);
#80=FACE_OUTER_BOUND('',#121,.T.);
#81=FACE_OUTER_BOUND('',#131,.T.);
#82=FACE_OUTER_BOUND('',#132,.T.);
#83=EDGE_LOOP('',(#311,#312,#313,#314));
#84=EDGE_LOOP('',(#315,#316,#317,#318));
#85=EDGE_LOOP('',(#319,#320,#321,#322));
#86=EDGE_LOOP('',(#323,#324,#325,#326));
#87=EDGE_LOOP('',(#327,#328,#329,#330));
#88=EDGE_LOOP('',(#331,#332,#333,#334));
#89=EDGE_LOOP('',(#335,#336,#337,#338));
#90=EDGE_LOOP('',(#339,#340,#341,#342));
#91=EDGE_LOOP('',(#343,#344,#345,#346));
#92=EDGE_LOOP('',(#347));
#93=EDGE_LOOP('',(#348,#349,#350,#351));
#94=EDGE_LOOP('',(#352));
#95=EDGE_LOOP('',(#353,#354,#355,#356));
#96=EDGE_LOOP('',(#357));
#97=EDGE_LOOP('',(#358,#359,#360,#361));
#98=EDGE_LOOP('',(#362));
#99=EDGE_LOOP('',(#363,#364,#365,#366));
#100=EDGE_LOOP('',(#367));
#101=EDGE_LOOP('',(#368,#369,#370,#371));
#102=EDGE_LOOP('',(#372));
#103=EDGE_LOOP('',(#373,#374,#375,#376));
#104=EDGE_LOOP('',(#377,#378,#379,#380));
#105=EDGE_LOOP('',(#381));
#106=EDGE_LOOP('',(#382));
#107=EDGE_LOOP('',(#383,#384,#385,#386));
#108=EDGE_LOOP('',(#387));
#109=EDGE_LOOP('',(#388));
#110=EDGE_LOOP('',(#389));
#111=EDGE_LOOP('',(#390));
#112=EDGE_LOOP('',(#391));
#113=EDGE_LOOP('',(#392));
#114=EDGE_LOOP('',(#393));
#115=EDGE_LOOP('',(#394));
#116=EDGE_LOOP('',(#395));
#117=EDGE_LOOP('',(#396));
#118=EDGE_LOOP('',(#397));
#119=EDGE_LOOP('',(#398));
#120=EDGE_LOOP('',(#399,#400,#401,#402));
#121=EDGE_LOOP('',(#403));
#122=EDGE_LOOP('',(#404));
#123=EDGE_LOOP('',(#405));
#124=EDGE_LOOP('',(#406));
#125=EDGE_LOOP('',(#407));
#126=EDGE_LOOP('',(#408));
#127=EDGE_LOOP('',(#409));
#128=EDGE_LOOP('',(#410));
#129=EDGE_LOOP('',(#411));
#130=EDGE_LOOP('',(#412));
#131=EDGE_LOOP('',(#413,#414,#415,#416));
#132=EDGE_LOOP('',(#417));
#133=EDGE_LOOP('',(#418));
#134=EDGE_LOOP('',(#419));
#135=EDGE_LOOP('',(#420));
#136=EDGE_LOOP('',(#421));
#137=EDGE_LOOP('',(#422));
#138=EDGE_LOOP('',(#423));
#139=EDGE_LOOP('',(#424));
#140=LINE('',#718,#159);
#141=LINE('',#724,#160);
#142=LINE('',#730,#161);
#143=LINE('',#736,#162);
#144=LINE('',#742,#163);
#145=LINE('',#748,#164);
#146=LINE('',#754,#165);
#147=LINE('',#760,#166);
#148=LINE('',#766,#167);
#149=LINE('',#773,#168);
#150=LINE('',#780,#169);
#151=LINE('',#787,#170);
#152=LINE('',#794,#171);
#153=LINE('',#801,#172);
#154=LINE('',#808,#173);
#155=LINE('',#814,#174);
#156=LINE('',#821,#175);
#157=LINE('',#832,#176);
#158=LINE('',#836,#177);
#159=VECTOR('',#562,2.);
#160=VECTOR('',#569,2.);
#161=VECTOR('',#576,2.);
#162=VECTOR('',#583,2.);
#163=VECTOR('',#590,2.);
#164=VECTOR('',#597,2.);
#165=VECTOR('',#604,2.);
#166=VECTOR('',#611,2.);
#167=VECTOR('',#618,1.7);
#168=VECTOR('',#627,1.7);
#169=VECTOR('',#636,1.7);
#170=VECTOR('',#645,1.7);
#171=VECTOR('',#654,1.7);
#172=VECTOR('',#663,1.7);
#173=VECTOR('',#672,4.);
#174=VECTOR('',#679,9.025);
#175=VECTOR('',#688,11.);
#176=VECTOR('',#703,35.);
#177=VECTOR('',#708,18.);
#178=CIRCLE('',#489,2.);
#179=CIRCLE('',#490,2.);
#180=CIRCLE('',#492,2.);
#181=CIRCLE('',#493,2.);
#182=CIRCLE('',#495,2.);
#183=CIRCLE('',#496,2.);
#184=CIRCLE('',#498,2.);
#185=CIRCLE('',#499,2.);
#186=CIRCLE('',#501,2.);
#187=CIRCLE('',#502,2.);
#188=CIRCLE('',#504,2.);
#189=CIRCLE('',#505,2.);
#190=CIRCLE('',#507,2.);
#191=CIRCLE('',#508,2.);
#192=CIRCLE('',#510,2.);
#193=CIRCLE('',#511,2.);
#194=CIRCLE('',#513,1.7);
#195=CIRCLE('',#514,1.7);
#196=CIRCLE('',#517,1.7);
#197=CIRCLE('',#518,1.7);
#198=CIRCLE('',#521,1.7);
#199=CIRCLE('',#522,1.7);
#200=CIRCLE('',#525,1.7);
#201=CIRCLE('',#526,1.7);
#202=CIRCLE('',#529,1.7);
#203=CIRCLE('',#530,1.7);
#204=CIRCLE('',#533,1.7);
#205=CIRCLE('',#534,1.7);
#206=CIRCLE('',#537,4.);
#207=CIRCLE('',#538,4.);
#208=CIRCLE('',#540,9.025);
#209=CIRCLE('',#541,9.025);
#210=CIRCLE('',#544,11.);
#211=CIRCLE('',#545,11.);
#212=CIRCLE('',#548,35.);
#213=CIRCLE('',#549,18.);
#214=CIRCLE('',#551,35.);
#215=CIRCLE('',#554,18.);
#216=VERTEX_POINT('',#715);
#217=VERTEX_POINT('',#717);
#218=VERTEX_POINT('',#721);
#219=VERTEX_POINT('',#723);
#220=VERTEX_POINT('',#727);
#221=VERTEX_POINT('',#729);
#222=VERTEX_POINT('',#733);
#223=VERTEX_POINT('',#735);
#224=VERTEX_POINT('',#739);
#225=VERTEX_POINT('',#741);
#226=VERTEX_POINT('',#745);
#227=VERTEX_POINT('',#747);
#228=VERTEX_POINT('',#751);
#229=VERTEX_POINT('',#753);
#230=VERTEX_POINT('',#757);
#231=VERTEX_POINT('',#759);
#232=VERTEX_POINT('',#763);
#233=VERTEX_POINT('',#765);
#234=VERTEX_POINT('',#770);
#235=VERTEX_POINT('',#772);
#236=VERTEX_POINT('',#777);
#237=VERTEX_POINT('',#779);
#238=VERTEX_POINT('',#784);
#239=VERTEX_POINT('',#786);
#240=VERTEX_POINT('',#791);
#241=VERTEX_POINT('',#793);
#242=VERTEX_POINT('',#798);
#243=VERTEX_POINT('',#800);
#244=VERTEX_POINT('',#805);
#245=VERTEX_POINT('',#807);
#246=VERTEX_POINT('',#811);
#247=VERTEX_POINT('',#813);
#248=VERTEX_POINT('',#818);
#249=VERTEX_POINT('',#820);
#250=VERTEX_POINT('',#825);
#251=VERTEX_POINT('',#827);
#252=VERTEX_POINT('',#830);
#253=VERTEX_POINT('',#835);
#254=EDGE_CURVE('',#216,#216,#178,.T.);
#255=EDGE_CURVE('',#216,#217,#140,.T.);
#256=EDGE_CURVE('',#217,#217,#179,.T.);
#257=EDGE_CURVE('',#218,#218,#180,.T.);
#258=EDGE_CURVE('',#218,#219,#141,.T.);
#259=EDGE_CURVE('',#219,#219,#181,.T.);
#260=EDGE_CURVE('',#220,#220,#182,.T.);
#261=EDGE_CURVE('',#220,#221,#142,.T.);
#262=EDGE_CURVE('',#221,#221,#183,.T.);
#263=EDGE_CURVE('',#222,#222,#184,.T.);
#264=EDGE_CURVE('',#222,#223,#143,.T.);
#265=EDGE_CURVE('',#223,#223,#185,.T.);
#266=EDGE_CURVE('',#224,#224,#186,.T.);
#267=EDGE_CURVE('',#224,#225,#144,.T.);
#268=EDGE_CURVE('',#225,#225,#187,.T.);
#269=EDGE_CURVE('',#226,#226,#188,.T.);
#270=EDGE_CURVE('',#226,#227,#145,.T.);
#271=EDGE_CURVE('',#227,#227,#189,.T.);
#272=EDGE_CURVE('',#228,#228,#190,.T.);
#273=EDGE_CURVE('',#228,#229,#146,.T.);
#274=EDGE_CURVE('',#229,#229,#191,.T.);
#275=EDGE_CURVE('',#230,#230,#192,.T.);
#276=EDGE_CURVE('',#230,#231,#147,.T.);
#277=EDGE_CURVE('',#231,#231,#193,.T.);
#278=EDGE_CURVE('',#232,#232,#194,.T.);
#279=EDGE_CURVE('',#232,#233,#148,.T.);
#280=EDGE_CURVE('',#233,#233,#195,.T.);
#281=EDGE_CURVE('',#234,#234,#196,.T.);
#282=EDGE_CURVE('',#234,#235,#149,.T.);
#283=EDGE_CURVE('',#235,#235,#197,.T.);
#284=EDGE_CURVE('',#236,#236,#198,.T.);
#285=EDGE_CURVE('',#236,#237,#150,.T.);
#286=EDGE_CURVE('',#237,#237,#199,.T.);
#287=EDGE_CURVE('',#238,#238,#200,.T.);
#288=EDGE_CURVE('',#238,#239,#151,.T.);
#289=EDGE_CURVE('',#239,#239,#201,.T.);
#290=EDGE_CURVE('',#240,#240,#202,.T.);
#291=EDGE_CURVE('',#240,#241,#152,.T.);
#292=EDGE_CURVE('',#241,#241,#203,.T.);
#293=EDGE_CURVE('',#242,#242,#204,.T.);
#294=EDGE_CURVE('',#242,#243,#153,.T.);
#295=EDGE_CURVE('',#243,#243,#205,.T.);
#296=EDGE_CURVE('',#244,#244,#206,.T.);
#297=EDGE_CURVE('',#244,#245,#154,.T.);
#298=EDGE_CURVE('',#245,#245,#207,.T.);
#299=EDGE_CURVE('',#246,#246,#208,.T.);
#300=EDGE_CURVE('',#246,#247,#155,.T.);
#301=EDGE_CURVE('',#247,#247,#209,.T.);
#302=EDGE_CURVE('',#248,#248,#210,.T.);
#303=EDGE_CURVE('',#248,#249,#156,.T.);
#304=EDGE_CURVE('',#249,#249,#211,.T.);
#305=EDGE_CURVE('',#250,#250,#212,.T.);
#306=EDGE_CURVE('',#251,#251,#213,.T.);
#307=EDGE_CURVE('',#252,#252,#214,.T.);
#308=EDGE_CURVE('',#252,#250,#157,.T.);
#309=EDGE_CURVE('',#251,#253,#158,.T.);
#310=EDGE_CURVE('',#253,#253,#215,.T.);
#311=ORIENTED_EDGE('',*,*,#254,.F.);
#312=ORIENTED_EDGE('',*,*,#255,.T.);
#313=ORIENTED_EDGE('',*,*,#256,.F.);
#314=ORIENTED_EDGE('',*,*,#255,.F.);
#315=ORIENTED_EDGE('',*,*,#257,.F.);
#316=ORIENTED_EDGE('',*,*,#258,.T.);
#317=ORIENTED_EDGE('',*,*,#259,.F.);
#318=ORIENTED_EDGE('',*,*,#258,.F.);
#319=ORIENTED_EDGE('',*,*,#260,.F.);
#320=ORIENTED_EDGE('',*,*,#261,.T.);
#321=ORIENTED_EDGE('',*,*,#262,.F.);
#322=ORIENTED_EDGE('',*,*,#261,.F.);
#323=ORIENTED_EDGE('',*,*,#263,.F.);
#324=ORIENTED_EDGE('',*,*,#264,.T.);
#325=ORIENTED_EDGE('',*,*,#265,.F.);
#326=ORIENTED_EDGE('',*,*,#264,.F.);
#327=ORIENTED_EDGE('',*,*,#266,.F.);
#328=ORIENTED_EDGE('',*,*,#267,.T.);
#329=ORIENTED_EDGE('',*,*,#268,.F.);
#330=ORIENTED_EDGE('',*,*,#267,.F.);
#331=ORIENTED_EDGE('',*,*,#269,.F.);
#332=ORIENTED_EDGE('',*,*,#270,.T.);
#333=ORIENTED_EDGE('',*,*,#271,.F.);
#334=ORIENTED_EDGE('',*,*,#270,.F.);
#335=ORIENTED_EDGE('',*,*,#272,.F.);
#336=ORIENTED_EDGE('',*,*,#273,.T.);
#337=ORIENTED_EDGE('',*,*,#274,.F.);
#338=ORIENTED_EDGE('',*,*,#273,.F.);
#339=ORIENTED_EDGE('',*,*,#275,.F.);
#340=ORIENTED_EDGE('',*,*,#276,.T.);
#341=ORIENTED_EDGE('',*,*,#277,.F.);
#342=ORIENTED_EDGE('',*,*,#276,.F.);
#343=ORIENTED_EDGE('',*,*,#278,.F.);
#344=ORIENTED_EDGE('',*,*,#279,.T.);
#345=ORIENTED_EDGE('',*,*,#280,.T.);
#346=ORIENTED_EDGE('',*,*,#279,.F.);
#347=ORIENTED_EDGE('',*,*,#280,.F.);
#348=ORIENTED_EDGE('',*,*,#281,.F.);
#349=ORIENTED_EDGE('',*,*,#282,.T.);
#350=ORIENTED_EDGE('',*,*,#283,.T.);
#351=ORIENTED_EDGE('',*,*,#282,.F.);
#352=ORIENTED_EDGE('',*,*,#283,.F.);
#353=ORIENTED_EDGE('',*,*,#284,.F.);
#354=ORIENTED_EDGE('',*,*,#285,.T.);
#355=ORIENTED_EDGE('',*,*,#286,.T.);
#356=ORIENTED_EDGE('',*,*,#285,.F.);
#357=ORIENTED_EDGE('',*,*,#286,.F.);
#358=ORIENTED_EDGE('',*,*,#287,.F.);
#359=ORIENTED_EDGE('',*,*,#288,.T.);
#360=ORIENTED_EDGE('',*,*,#289,.T.);
#361=ORIENTED_EDGE('',*,*,#288,.F.);
#362=ORIENTED_EDGE('',*,*,#289,.F.);
#363=ORIENTED_EDGE('',*,*,#290,.F.);
#364=ORIENTED_EDGE('',*,*,#291,.T.);
#365=ORIENTED_EDGE('',*,*,#292,.T.);
#366=ORIENTED_EDGE('',*,*,#291,.F.);
#367=ORIENTED_EDGE('',*,*,#292,.F.);
#368=ORIENTED_EDGE('',*,*,#293,.F.);
#369=ORIENTED_EDGE('',*,*,#294,.T.);
#370=ORIENTED_EDGE('',*,*,#295,.T.);
#371=ORIENTED_EDGE('',*,*,#294,.F.);
#372=ORIENTED_EDGE('',*,*,#295,.F.);
#373=ORIENTED_EDGE('',*,*,#296,.F.);
#374=ORIENTED_EDGE('',*,*,#297,.T.);
#375=ORIENTED_EDGE('',*,*,#298,.F.);
#376=ORIENTED_EDGE('',*,*,#297,.F.);
#377=ORIENTED_EDGE('',*,*,#299,.F.);
#378=ORIENTED_EDGE('',*,*,#300,.T.);
#379=ORIENTED_EDGE('',*,*,#301,.T.);
#380=ORIENTED_EDGE('',*,*,#300,.F.);
#381=ORIENTED_EDGE('',*,*,#301,.F.);
#382=ORIENTED_EDGE('',*,*,#296,.T.);
#383=ORIENTED_EDGE('',*,*,#302,.F.);
#384=ORIENTED_EDGE('',*,*,#303,.T.);
#385=ORIENTED_EDGE('',*,*,#304,.T.);
#386=ORIENTED_EDGE('',*,*,#303,.F.);
#387=ORIENTED_EDGE('',*,*,#304,.F.);
#388=ORIENTED_EDGE('',*,*,#298,.T.);
#389=ORIENTED_EDGE('',*,*,#305,.F.);
#390=ORIENTED_EDGE('',*,*,#306,.T.);
#391=ORIENTED_EDGE('',*,*,#277,.T.);
#392=ORIENTED_EDGE('',*,*,#274,.T.);
#393=ORIENTED_EDGE('',*,*,#271,.T.);
#394=ORIENTED_EDGE('',*,*,#268,.T.);
#395=ORIENTED_EDGE('',*,*,#265,.T.);
#396=ORIENTED_EDGE('',*,*,#262,.T.);
#397=ORIENTED_EDGE('',*,*,#259,.T.);
#398=ORIENTED_EDGE('',*,*,#256,.T.);
#399=ORIENTED_EDGE('',*,*,#307,.F.);
#400=ORIENTED_EDGE('',*,*,#308,.T.);
#401=ORIENTED_EDGE('',*,*,#305,.T.);
#402=ORIENTED_EDGE('',*,*,#308,.F.);
#403=ORIENTED_EDGE('',*,*,#307,.T.);
#404=ORIENTED_EDGE('',*,*,#302,.T.);
#405=ORIENTED_EDGE('',*,*,#275,.T.);
#406=ORIENTED_EDGE('',*,*,#272,.T.);
#407=ORIENTED_EDGE('',*,*,#269,.T.);
#408=ORIENTED_EDGE('',*,*,#266,.T.);
#409=ORIENTED_EDGE('',*,*,#263,.T.);
#410=ORIENTED_EDGE('',*,*,#260,.T.);
#411=ORIENTED_EDGE('',*,*,#257,.T.);
#412=ORIENTED_EDGE('',*,*,#254,.T.);
#413=ORIENTED_EDGE('',*,*,#306,.F.);
#414=ORIENTED_EDGE('',*,*,#309,.T.);
#415=ORIENTED_EDGE('',*,*,#310,.T.);
#416=ORIENTED_EDGE('',*,*,#309,.F.);
#417=ORIENTED_EDGE('',*,*,#310,.F.);
#418=ORIENTED_EDGE('',*,*,#299,.T.);
#419=ORIENTED_EDGE('',*,*,#293,.T.);
#420=ORIENTED_EDGE('',*,*,#290,.T.);
#421=ORIENTED_EDGE('',*,*,#287,.T.);
#422=ORIENTED_EDGE('',*,*,#284,.T.);
#423=ORIENTED_EDGE('',*,*,#281,.T.);
#424=ORIENTED_EDGE('',*,*,#278,.T.);
#425=CYLINDRICAL_SURFACE('',#488,2.);
#426=CYLINDRICAL_SURFACE('',#491,2.);
#427=CYLINDRICAL_SURFACE('',#494,2.);
#428=CYLINDRICAL_SURFACE('',#497,2.);
#429=CYLINDRICAL_SURFACE('',#500,2.);
#430=CYLINDRICAL_SURFACE('',#503,2.);
#431=CYLINDRICAL_SURFACE('',#506,2.);
#432=CYLINDRICAL_SURFACE('',#509,2.);
#433=CYLINDRICAL_SURFACE('',#512,1.7);
#434=CYLINDRICAL_SURFACE('',#516,1.7);
#435=CYLINDRICAL_SURFACE('',#520,1.7);
#436=CYLINDRICAL_SURFACE('',#524,1.7);
#437=CYLINDRICAL_SURFACE('',#528,1.7);
#438=CYLINDRICAL_SURFACE('',#532,1.7);
#439=CYLINDRICAL_SURFACE('',#536,4.);
#440=CYLINDRICAL_SURFACE('',#539,9.025);
#441=CYLINDRICAL_SURFACE('',#543,11.);
#442=CYLINDRICAL_SURFACE('',#550,35.);
#443=CYLINDRICAL_SURFACE('',#553,18.);
#444=ADVANCED_FACE('',(#53),#425,.F.);
#445=ADVANCED_FACE('',(#54),#426,.F.);
#446=ADVANCED_FACE('',(#55),#427,.F.);
#447=ADVANCED_FACE('',(#56),#428,.F.);
#448=ADVANCED_FACE('',(#57),#429,.F.);
#449=ADVANCED_FACE('',(#58),#430,.F.);
#450=ADVANCED_FACE('',(#59),#431,.F.);
#451=ADVANCED_FACE('',(#60),#432,.F.);
#452=ADVANCED_FACE('',(#61),#433,.F.);
#453=ADVANCED_FACE('',(#62),#42,.F.);
#454=ADVANCED_FACE('',(#63),#434,.F.);
#455=ADVANCED_FACE('',(#64),#43,.F.);
#456=ADVANCED_FACE('',(#65),#435,.F.);
#457=ADVANCED_FACE('',(#66),#44,.F.);
#458=ADVANCED_FACE('',(#67),#436,.F.);
#459=ADVANCED_FACE('',(#68),#45,.F.);
#460=ADVANCED_FACE('',(#69),#437,.F.);
#461=ADVANCED_FACE('',(#70),#46,.F.);
#462=ADVANCED_FACE('',(#71),#438,.F.);
#463=ADVANCED_FACE('',(#72),#47,.F.);
#464=ADVANCED_FACE('',(#73),#439,.F.);
#465=ADVANCED_FACE('',(#74),#440,.F.);
#466=ADVANCED_FACE('',(#75,#15),#48,.F.);
#467=ADVANCED_FACE('',(#76),#441,.F.);
#468=ADVANCED_FACE('',(#77,#16),#49,.T.);
#469=ADVANCED_FACE('',(#78,#17,#18,#19,#20,#21,#22,#23,#24,#25),#50,.F.);
#470=ADVANCED_FACE('',(#79),#442,.T.);
#471=ADVANCED_FACE('',(#80,#26,#27,#28,#29,#30,#31,#32,#33,#34),#51,.T.);
#472=ADVANCED_FACE('',(#81),#443,.T.);
#473=ADVANCED_FACE('',(#82,#35,#36,#37,#38,#39,#40,#41),#52,.F.);
#474=CLOSED_SHELL('',(#444,#445,#446,#447,#448,#449,#450,#451,#452,#453,
#454,#455,#456,#457,#458,#459,#460,#461,#462,#463,#464,#465,#466,#467,#468,
#469,#470,#471,#472,#473));
#475=DERIVED_UNIT_ELEMENT(#477,1.);
#476=DERIVED_UNIT_ELEMENT(#844,-3.);
#477=(
MASS_UNIT()
NAMED_UNIT(*)
SI_UNIT(.KILO.,.GRAM.)
);
#478=DERIVED_UNIT((#475,#476));
#479=MEASURE_REPRESENTATION_ITEM('density measure',
POSITIVE_RATIO_MEASURE(7850.),#478);
#480=PROPERTY_DEFINITION_REPRESENTATION(#485,#482);
#481=PROPERTY_DEFINITION_REPRESENTATION(#486,#483);
#482=REPRESENTATION('material name',(#484),#841);
#483=REPRESENTATION('density',(#479),#841);
#484=DESCRIPTIVE_REPRESENTATION_ITEM('\X2\AC15CCA0\X0\','\X2\AC15CCA0\X0\');
#485=PROPERTY_DEFINITION('material property','material name',#851);
#486=PROPERTY_DEFINITION('material property','density of part',#851);
#487=AXIS2_PLACEMENT_3D('',#713,#556,#557);
#488=AXIS2_PLACEMENT_3D('',#714,#558,#559);
#489=AXIS2_PLACEMENT_3D('',#716,#560,#561);
#490=AXIS2_PLACEMENT_3D('',#719,#563,#564);
#491=AXIS2_PLACEMENT_3D('',#720,#565,#566);
#492=AXIS2_PLACEMENT_3D('',#722,#567,#568);
#493=AXIS2_PLACEMENT_3D('',#725,#570,#571);
#494=AXIS2_PLACEMENT_3D('',#726,#572,#573);
#495=AXIS2_PLACEMENT_3D('',#728,#574,#575);
#496=AXIS2_PLACEMENT_3D('',#731,#577,#578);
#497=AXIS2_PLACEMENT_3D('',#732,#579,#580);
#498=AXIS2_PLACEMENT_3D('',#734,#581,#582);
#499=AXIS2_PLACEMENT_3D('',#737,#584,#585);
#500=AXIS2_PLACEMENT_3D('',#738,#586,#587);
#501=AXIS2_PLACEMENT_3D('',#740,#588,#589);
#502=AXIS2_PLACEMENT_3D('',#743,#591,#592);
#503=AXIS2_PLACEMENT_3D('',#744,#593,#594);
#504=AXIS2_PLACEMENT_3D('',#746,#595,#596);
#505=AXIS2_PLACEMENT_3D('',#749,#598,#599);
#506=AXIS2_PLACEMENT_3D('',#750,#600,#601);
#507=AXIS2_PLACEMENT_3D('',#752,#602,#603);
#508=AXIS2_PLACEMENT_3D('',#755,#605,#606);
#509=AXIS2_PLACEMENT_3D('',#756,#607,#608);
#510=AXIS2_PLACEMENT_3D('',#758,#609,#610);
#511=AXIS2_PLACEMENT_3D('',#761,#612,#613);
#512=AXIS2_PLACEMENT_3D('',#762,#614,#615);
#513=AXIS2_PLACEMENT_3D('',#764,#616,#617);
#514=AXIS2_PLACEMENT_3D('',#767,#619,#620);
#515=AXIS2_PLACEMENT_3D('',#768,#621,#622);
#516=AXIS2_PLACEMENT_3D('',#769,#623,#624);
#517=AXIS2_PLACEMENT_3D('',#771,#625,#626);
#518=AXIS2_PLACEMENT_3D('',#774,#628,#629);
#519=AXIS2_PLACEMENT_3D('',#775,#630,#631);
#520=AXIS2_PLACEMENT_3D('',#776,#632,#633);
#521=AXIS2_PLACEMENT_3D('',#778,#634,#635);
#522=AXIS2_PLACEMENT_3D('',#781,#637,#638);
#523=AXIS2_PLACEMENT_3D('',#782,#639,#640);
#524=AXIS2_PLACEMENT_3D('',#783,#641,#642);
#525=AXIS2_PLACEMENT_3D('',#785,#643,#644);
#526=AXIS2_PLACEMENT_3D('',#788,#646,#647);
#527=AXIS2_PLACEMENT_3D('',#789,#648,#649);
#528=AXIS2_PLACEMENT_3D('',#790,#650,#651);
#529=AXIS2_PLACEMENT_3D('',#792,#652,#653);
#530=AXIS2_PLACEMENT_3D('',#795,#655,#656);
#531=AXIS2_PLACEMENT_3D('',#796,#657,#658);
#532=AXIS2_PLACEMENT_3D('',#797,#659,#660);
#533=AXIS2_PLACEMENT_3D('',#799,#661,#662);
#534=AXIS2_PLACEMENT_3D('',#802,#664,#665);
#535=AXIS2_PLACEMENT_3D('',#803,#666,#667);
#536=AXIS2_PLACEMENT_3D('',#804,#668,#669);
#537=AXIS2_PLACEMENT_3D('',#806,#670,#671);
#538=AXIS2_PLACEMENT_3D('',#809,#673,#674);
#539=AXIS2_PLACEMENT_3D('',#810,#675,#676);
#540=AXIS2_PLACEMENT_3D('',#812,#677,#678);
#541=AXIS2_PLACEMENT_3D('',#815,#680,#681);
#542=AXIS2_PLACEMENT_3D('',#816,#682,#683);
#543=AXIS2_PLACEMENT_3D('',#817,#684,#685);
#544=AXIS2_PLACEMENT_3D('',#819,#686,#687);
#545=AXIS2_PLACEMENT_3D('',#822,#689,#690);
#546=AXIS2_PLACEMENT_3D('',#823,#691,#692);
#547=AXIS2_PLACEMENT_3D('',#824,#693,#694);
#548=AXIS2_PLACEMENT_3D('',#826,#695,#696);
#549=AXIS2_PLACEMENT_3D('',#828,#697,#698);
#550=AXIS2_PLACEMENT_3D('',#829,#699,#700);
#551=AXIS2_PLACEMENT_3D('',#831,#701,#702);
#552=AXIS2_PLACEMENT_3D('',#833,#704,#705);
#553=AXIS2_PLACEMENT_3D('',#834,#706,#707);
#554=AXIS2_PLACEMENT_3D('',#837,#709,#710);
#555=AXIS2_PLACEMENT_3D('',#838,#711,#712);
#556=DIRECTION('axis',(0.,0.,1.));
#557=DIRECTION('refdir',(1.,0.,0.));
#558=DIRECTION('center_axis',(-1.,0.,0.));
#559=DIRECTION('ref_axis',(0.,0.,-1.));
#560=DIRECTION('center_axis',(-1.,0.,0.));
#561=DIRECTION('ref_axis',(0.,0.,-1.));
#562=DIRECTION('',(-1.,0.,0.));
#563=DIRECTION('center_axis',(1.,0.,0.));
#564=DIRECTION('ref_axis',(0.,0.,-1.));
#565=DIRECTION('center_axis',(-1.,0.,0.));
#566=DIRECTION('ref_axis',(0.,0.,-1.));
#567=DIRECTION('center_axis',(-1.,0.,0.));
#568=DIRECTION('ref_axis',(0.,0.,-1.));
#569=DIRECTION('',(-1.,0.,0.));
#570=DIRECTION('center_axis',(1.,0.,0.));
#571=DIRECTION('ref_axis',(0.,0.,-1.));
#572=DIRECTION('center_axis',(-1.,0.,0.));
#573=DIRECTION('ref_axis',(0.,0.,-1.));
#574=DIRECTION('center_axis',(-1.,0.,0.));
#575=DIRECTION('ref_axis',(0.,0.,-1.));
#576=DIRECTION('',(-1.,0.,0.));
#577=DIRECTION('center_axis',(1.,0.,0.));
#578=DIRECTION('ref_axis',(0.,0.,-1.));
#579=DIRECTION('center_axis',(-1.,0.,0.));
#580=DIRECTION('ref_axis',(0.,0.,-1.));
#581=DIRECTION('center_axis',(-1.,0.,0.));
#582=DIRECTION('ref_axis',(0.,0.,-1.));
#583=DIRECTION('',(-1.,0.,0.));
#584=DIRECTION('center_axis',(1.,0.,0.));
#585=DIRECTION('ref_axis',(0.,0.,-1.));
#586=DIRECTION('center_axis',(-1.,0.,0.));
#587=DIRECTION('ref_axis',(0.,0.,-1.));
#588=DIRECTION('center_axis',(-1.,0.,0.));
#589=DIRECTION('ref_axis',(0.,0.,-1.));
#590=DIRECTION('',(-1.,0.,0.));
#591=DIRECTION('center_axis',(1.,0.,0.));
#592=DIRECTION('ref_axis',(0.,0.,-1.));
#593=DIRECTION('center_axis',(-1.,0.,0.));
#594=DIRECTION('ref_axis',(0.,0.,-1.));
#595=DIRECTION('center_axis',(-1.,0.,0.));
#596=DIRECTION('ref_axis',(0.,0.,-1.));
#597=DIRECTION('',(-1.,0.,0.));
#598=DIRECTION('center_axis',(1.,0.,0.));
#599=DIRECTION('ref_axis',(0.,0.,-1.));
#600=DIRECTION('center_axis',(-1.,0.,0.));
#601=DIRECTION('ref_axis',(0.,0.,-1.));
#602=DIRECTION('center_axis',(-1.,0.,0.));
#603=DIRECTION('ref_axis',(0.,0.,-1.));
#604=DIRECTION('',(-1.,0.,0.));
#605=DIRECTION('center_axis',(1.,0.,0.));
#606=DIRECTION('ref_axis',(0.,0.,-1.));
#607=DIRECTION('center_axis',(-1.,0.,0.));
#608=DIRECTION('ref_axis',(0.,0.,-1.));
#609=DIRECTION('center_axis',(-1.,0.,0.));
#610=DIRECTION('ref_axis',(0.,0.,-1.));
#611=DIRECTION('',(-1.,0.,0.));
#612=DIRECTION('center_axis',(1.,0.,0.));
#613=DIRECTION('ref_axis',(0.,0.,-1.));
#614=DIRECTION('center_axis',(1.,0.,0.));
#615=DIRECTION('ref_axis',(0.,0.,-1.));
#616=DIRECTION('center_axis',(1.,0.,0.));
#617=DIRECTION('ref_axis',(0.,0.,-1.));
#618=DIRECTION('',(1.,0.,0.));
#619=DIRECTION('center_axis',(1.,0.,0.));
#620=DIRECTION('ref_axis',(0.,0.,-1.));
#621=DIRECTION('center_axis',(1.,0.,0.));
#622=DIRECTION('ref_axis',(0.,0.,-1.));
#623=DIRECTION('center_axis',(1.,0.,0.));
#624=DIRECTION('ref_axis',(0.,0.,-1.));
#625=DIRECTION('center_axis',(1.,0.,0.));
#626=DIRECTION('ref_axis',(0.,0.,-1.));
#627=DIRECTION('',(1.,0.,0.));
#628=DIRECTION('center_axis',(1.,0.,0.));
#629=DIRECTION('ref_axis',(0.,0.,-1.));
#630=DIRECTION('center_axis',(1.,0.,0.));
#631=DIRECTION('ref_axis',(0.,0.,-1.));
#632=DIRECTION('center_axis',(1.,0.,0.));
#633=DIRECTION('ref_axis',(0.,0.,-1.));
#634=DIRECTION('center_axis',(1.,0.,0.));
#635=DIRECTION('ref_axis',(0.,0.,-1.));
#636=DIRECTION('',(1.,0.,0.));
#637=DIRECTION('center_axis',(1.,0.,0.));
#638=DIRECTION('ref_axis',(0.,0.,-1.));
#639=DIRECTION('center_axis',(1.,0.,0.));
#640=DIRECTION('ref_axis',(0.,0.,-1.));
#641=DIRECTION('center_axis',(1.,0.,0.));
#642=DIRECTION('ref_axis',(0.,0.,-1.));
#643=DIRECTION('center_axis',(1.,0.,0.));
#644=DIRECTION('ref_axis',(0.,0.,-1.));
#645=DIRECTION('',(1.,0.,0.));
#646=DIRECTION('center_axis',(1.,0.,0.));
#647=DIRECTION('ref_axis',(0.,0.,-1.));
#648=DIRECTION('center_axis',(1.,0.,0.));
#649=DIRECTION('ref_axis',(0.,0.,-1.));
#650=DIRECTION('center_axis',(1.,0.,0.));
#651=DIRECTION('ref_axis',(0.,0.,-1.));
#652=DIRECTION('center_axis',(1.,0.,0.));
#653=DIRECTION('ref_axis',(0.,0.,-1.));
#654=DIRECTION('',(1.,0.,0.));
#655=DIRECTION('center_axis',(1.,0.,0.));
#656=DIRECTION('ref_axis',(0.,0.,-1.));
#657=DIRECTION('center_axis',(1.,0.,0.));
#658=DIRECTION('ref_axis',(0.,0.,-1.));
#659=DIRECTION('center_axis',(1.,0.,0.));
#660=DIRECTION('ref_axis',(0.,0.,-1.));
#661=DIRECTION('center_axis',(1.,0.,0.));
#662=DIRECTION('ref_axis',(0.,0.,-1.));
#663=DIRECTION('',(1.,0.,0.));
#664=DIRECTION('center_axis',(1.,0.,0.));
#665=DIRECTION('ref_axis',(0.,0.,-1.));
#666=DIRECTION('center_axis',(1.,0.,0.));
#667=DIRECTION('ref_axis',(0.,0.,-1.));
#668=DIRECTION('center_axis',(1.,0.,0.));
#669=DIRECTION('ref_axis',(0.,0.,-1.));
#670=DIRECTION('center_axis',(1.,0.,0.));
#671=DIRECTION('ref_axis',(0.,0.,-1.));
#672=DIRECTION('',(1.,0.,0.));
#673=DIRECTION('center_axis',(-1.,0.,0.));
#674=DIRECTION('ref_axis',(0.,0.,-1.));
#675=DIRECTION('center_axis',(1.,0.,0.));
#676=DIRECTION('ref_axis',(0.,0.,-1.));
#677=DIRECTION('center_axis',(1.,0.,0.));
#678=DIRECTION('ref_axis',(0.,0.,-1.));
#679=DIRECTION('',(1.,0.,0.));
#680=DIRECTION('center_axis',(1.,0.,0.));
#681=DIRECTION('ref_axis',(0.,0.,-1.));
#682=DIRECTION('center_axis',(1.,0.,0.));
#683=DIRECTION('ref_axis',(0.,0.,-1.));
#684=DIRECTION('center_axis',(-1.,0.,0.));
#685=DIRECTION('ref_axis',(0.,0.,-1.));
#686=DIRECTION('center_axis',(-1.,0.,0.));
#687=DIRECTION('ref_axis',(0.,0.,-1.));
#688=DIRECTION('',(-1.,0.,0.));
#689=DIRECTION('center_axis',(-1.,0.,0.));
#690=DIRECTION('ref_axis',(0.,0.,-1.));
#691=DIRECTION('center_axis',(1.,0.,0.));
#692=DIRECTION('ref_axis',(0.,0.,-1.));
#693=DIRECTION('center_axis',(1.,0.,0.));
#694=DIRECTION('ref_axis',(0.,0.,-1.));
#695=DIRECTION('center_axis',(1.,0.,0.));
#696=DIRECTION('ref_axis',(0.,0.,-1.));
#697=DIRECTION('center_axis',(1.,0.,0.));
#698=DIRECTION('ref_axis',(0.,0.,-1.));
#699=DIRECTION('center_axis',(1.,0.,0.));
#700=DIRECTION('ref_axis',(0.,0.,-1.));
#701=DIRECTION('center_axis',(1.,0.,0.));
#702=DIRECTION('ref_axis',(0.,0.,-1.));
#703=DIRECTION('',(-1.,0.,0.));
#704=DIRECTION('center_axis',(1.,0.,0.));
#705=DIRECTION('ref_axis',(0.,0.,-1.));
#706=DIRECTION('center_axis',(1.,0.,0.));
#707=DIRECTION('ref_axis',(0.,0.,-1.));
#708=DIRECTION('',(-1.,0.,0.));
#709=DIRECTION('center_axis',(1.,0.,0.));
#710=DIRECTION('ref_axis',(0.,0.,-1.));
#711=DIRECTION('center_axis',(1.,0.,0.));
#712=DIRECTION('ref_axis',(0.,0.,-1.));
#713=CARTESIAN_POINT('',(0.,0.,0.));
#714=CARTESIAN_POINT('Origin',(32.,11.4805029709527,-27.7163859753386));
#715=CARTESIAN_POINT('',(32.,11.4805029709527,-25.7163859753386));
#716=CARTESIAN_POINT('Origin',(32.,11.4805029709527,-27.7163859753386));
#717=CARTESIAN_POINT('',(22.,11.4805029709527,-25.7163859753386));
#718=CARTESIAN_POINT('',(32.,11.4805029709527,-25.7163859753386));
#719=CARTESIAN_POINT('Origin',(22.,11.4805029709527,-27.7163859753386));
#720=CARTESIAN_POINT('Origin',(32.,-27.7163859753386,-11.4805029709527));
#721=CARTESIAN_POINT('',(32.,-27.7163859753386,-9.48050297095269));
#722=CARTESIAN_POINT('Origin',(32.,-27.7163859753386,-11.4805029709527));
#723=CARTESIAN_POINT('',(22.,-27.7163859753386,-9.48050297095269));
#724=CARTESIAN_POINT('',(32.,-27.7163859753386,-9.48050297095269));
#725=CARTESIAN_POINT('Origin',(22.,-27.7163859753386,-11.4805029709527));
#726=CARTESIAN_POINT('Origin',(32.,-27.7163859753386,11.4805029709527));
#727=CARTESIAN_POINT('',(32.,-27.7163859753386,13.4805029709527));
#728=CARTESIAN_POINT('Origin',(32.,-27.7163859753386,11.4805029709527));
#729=CARTESIAN_POINT('',(22.,-27.7163859753386,13.4805029709527));
#730=CARTESIAN_POINT('',(32.,-27.7163859753386,13.4805029709527));
#731=CARTESIAN_POINT('Origin',(22.,-27.7163859753386,11.4805029709527));
#732=CARTESIAN_POINT('Origin',(32.,11.4805029709527,27.7163859753386));
#733=CARTESIAN_POINT('',(32.,11.4805029709527,29.7163859753386));
#734=CARTESIAN_POINT('Origin',(32.,11.4805029709527,27.7163859753386));
#735=CARTESIAN_POINT('',(22.,11.4805029709527,29.7163859753386));
#736=CARTESIAN_POINT('',(32.,11.4805029709527,29.7163859753386));
#737=CARTESIAN_POINT('Origin',(22.,11.4805029709527,27.7163859753386));
#738=CARTESIAN_POINT('Origin',(32.,-11.4805029709527,27.7163859753386));
#739=CARTESIAN_POINT('',(32.,-11.4805029709527,29.7163859753386));
#740=CARTESIAN_POINT('Origin',(32.,-11.4805029709527,27.7163859753386));
#741=CARTESIAN_POINT('',(22.,-11.4805029709527,29.7163859753386));
#742=CARTESIAN_POINT('',(32.,-11.4805029709527,29.7163859753386));
#743=CARTESIAN_POINT('Origin',(22.,-11.4805029709527,27.7163859753386));
#744=CARTESIAN_POINT('Origin',(32.,27.7163859753386,11.4805029709527));
#745=CARTESIAN_POINT('',(32.,27.7163859753386,13.4805029709527));
#746=CARTESIAN_POINT('Origin',(32.,27.7163859753386,11.4805029709527));
#747=CARTESIAN_POINT('',(22.,27.7163859753386,13.4805029709527));
#748=CARTESIAN_POINT('',(32.,27.7163859753386,13.4805029709527));
#749=CARTESIAN_POINT('Origin',(22.,27.7163859753386,11.4805029709527));
#750=CARTESIAN_POINT('Origin',(32.,-11.4805029709527,-27.7163859753386));
#751=CARTESIAN_POINT('',(32.,-11.4805029709527,-25.7163859753386));
#752=CARTESIAN_POINT('Origin',(32.,-11.4805029709527,-27.7163859753386));
#753=CARTESIAN_POINT('',(22.,-11.4805029709527,-25.7163859753386));
#754=CARTESIAN_POINT('',(32.,-11.4805029709527,-25.7163859753386));
#755=CARTESIAN_POINT('Origin',(22.,-11.4805029709527,-27.7163859753386));
#756=CARTESIAN_POINT('Origin',(32.,27.7163859753386,-11.4805029709527));
#757=CARTESIAN_POINT('',(32.,27.7163859753386,-9.48050297095269));
#758=CARTESIAN_POINT('Origin',(32.,27.7163859753386,-11.4805029709527));
#759=CARTESIAN_POINT('',(22.,27.7163859753386,-9.48050297095269));
#760=CARTESIAN_POINT('',(32.,27.7163859753386,-9.48050297095269));
#761=CARTESIAN_POINT('Origin',(22.,27.7163859753386,-11.4805029709527));
#762=CARTESIAN_POINT('Origin',(0.,-6.75000000000001,-11.6913429510899));
#763=CARTESIAN_POINT('',(0.,-6.75000000000001,-9.99134295108992));
#764=CARTESIAN_POINT('Origin',(0.,-6.75000000000001,-11.6913429510899));
#765=CARTESIAN_POINT('',(6.,-6.75000000000001,-9.99134295108992));
#766=CARTESIAN_POINT('',(0.,-6.75000000000001,-9.99134295108992));
#767=CARTESIAN_POINT('Origin',(6.,-6.75000000000001,-11.6913429510899));
#768=CARTESIAN_POINT('Origin',(6.,-6.75000000000001,-11.6913429510899));
#769=CARTESIAN_POINT('Origin',(0.,13.5,0.));
#770=CARTESIAN_POINT('',(0.,13.5,1.7));
#771=CARTESIAN_POINT('Origin',(0.,13.5,0.));
#772=CARTESIAN_POINT('',(6.,13.5,1.7));
#773=CARTESIAN_POINT('',(0.,13.5,1.7));
#774=CARTESIAN_POINT('Origin',(6.,13.5,0.));
#775=CARTESIAN_POINT('Origin',(6.,13.5,0.));
#776=CARTESIAN_POINT('Origin',(0.,6.75,11.6913429510899));
#777=CARTESIAN_POINT('',(0.,6.75,13.3913429510899));
#778=CARTESIAN_POINT('Origin',(0.,6.75,11.6913429510899));
#779=CARTESIAN_POINT('',(6.,6.75,13.3913429510899));
#780=CARTESIAN_POINT('',(0.,6.75,13.3913429510899));
#781=CARTESIAN_POINT('Origin',(6.,6.75,11.6913429510899));
#782=CARTESIAN_POINT('Origin',(6.,6.75,11.6913429510899));
#783=CARTESIAN_POINT('Origin',(0.,-6.75,11.6913429510899));
#784=CARTESIAN_POINT('',(0.,-6.75,13.3913429510899));
#785=CARTESIAN_POINT('Origin',(0.,-6.75,11.6913429510899));
#786=CARTESIAN_POINT('',(6.,-6.75,13.3913429510899));
#787=CARTESIAN_POINT('',(0.,-6.75,13.3913429510899));
#788=CARTESIAN_POINT('Origin',(6.,-6.75,11.6913429510899));
#789=CARTESIAN_POINT('Origin',(6.,-6.75,11.6913429510899));
#790=CARTESIAN_POINT('Origin',(0.,-13.5,1.65327317884893E-15));
#791=CARTESIAN_POINT('',(0.,-13.5,1.7));
#792=CARTESIAN_POINT('Origin',(0.,-13.5,1.65327317884893E-15));
#793=CARTESIAN_POINT('',(6.,-13.5,1.7));
#794=CARTESIAN_POINT('',(0.,-13.5,1.7));
#795=CARTESIAN_POINT('Origin',(6.,-13.5,1.65327317884893E-15));
#796=CARTESIAN_POINT('Origin',(6.,-13.5,1.66533453693773E-15));
#797=CARTESIAN_POINT('Origin',(0.,6.75,-11.6913429510899));
#798=CARTESIAN_POINT('',(0.,6.75,-9.99134295108992));
#799=CARTESIAN_POINT('Origin',(0.,6.75,-11.6913429510899));
#800=CARTESIAN_POINT('',(6.,6.75,-9.99134295108992));
#801=CARTESIAN_POINT('',(0.,6.75,-9.99134295108992));
#802=CARTESIAN_POINT('Origin',(6.,6.75,-11.6913429510899));
#803=CARTESIAN_POINT('Origin',(6.,6.75,-11.6913429510899));
#804=CARTESIAN_POINT('Origin',(0.,0.,0.));
#805=CARTESIAN_POINT('',(1.5,-4.89858719658941E-16,4.));
#806=CARTESIAN_POINT('Origin',(1.5,0.,0.));
#807=CARTESIAN_POINT('',(6.,-4.89858719658941E-16,4.));
#808=CARTESIAN_POINT('',(0.,-4.89858719658941E-16,4.));
#809=CARTESIAN_POINT('Origin',(6.,0.,0.));
#810=CARTESIAN_POINT('Origin',(0.,0.,0.));
#811=CARTESIAN_POINT('',(0.,-1.10524373623049E-15,9.025));
#812=CARTESIAN_POINT('Origin',(0.,0.,0.));
#813=CARTESIAN_POINT('',(1.5,-1.10524373623049E-15,9.025));
#814=CARTESIAN_POINT('',(0.,-1.10524373623049E-15,9.025));
#815=CARTESIAN_POINT('Origin',(1.5,0.,0.));
#816=CARTESIAN_POINT('Origin',(1.5,0.,0.));
#817=CARTESIAN_POINT('Origin',(32.,0.,0.));
#818=CARTESIAN_POINT('',(32.,-1.34711147906209E-15,11.));
#819=CARTESIAN_POINT('Origin',(32.,0.,0.));
#820=CARTESIAN_POINT('',(6.,-1.34711147906209E-15,11.));
#821=CARTESIAN_POINT('',(32.,1.34711147906209E-15,11.));
#822=CARTESIAN_POINT('Origin',(6.,0.,0.));
#823=CARTESIAN_POINT('Origin',(6.,0.,0.));
#824=CARTESIAN_POINT('Origin',(22.,0.,0.));
#825=CARTESIAN_POINT('',(22.,-4.28626379701574E-15,35.));
#826=CARTESIAN_POINT('Origin',(22.,0.,0.));
#827=CARTESIAN_POINT('',(22.,-2.20436423846524E-15,18.));
#828=CARTESIAN_POINT('Origin',(22.,0.,0.));
#829=CARTESIAN_POINT('Origin',(22.,0.,0.));
#830=CARTESIAN_POINT('',(32.,-4.28626379701574E-15,35.));
#831=CARTESIAN_POINT('Origin',(32.,0.,0.));
#832=CARTESIAN_POINT('',(22.,-4.28626379701574E-15,35.));
#833=CARTESIAN_POINT('Origin',(32.,0.,0.));
#834=CARTESIAN_POINT('Origin',(0.,0.,0.));
#835=CARTESIAN_POINT('',(0.,-2.20436423846524E-15,18.));
#836=CARTESIAN_POINT('',(0.,-2.20436423846524E-15,18.));
#837=CARTESIAN_POINT('Origin',(0.,0.,0.));
#838=CARTESIAN_POINT('Origin',(0.,0.,0.));
#839=UNCERTAINTY_MEASURE_WITH_UNIT(LENGTH_MEASURE(0.01),#843,
'DISTANCE_ACCURACY_VALUE',
'Maximum model space distance between geometric entities at asserted c
onnectivities');
#840=UNCERTAINTY_MEASURE_WITH_UNIT(LENGTH_MEASURE(0.01),#843,
'DISTANCE_ACCURACY_VALUE',
'Maximum model space distance between geometric entities at asserted c
onnectivities');
#841=(
GEOMETRIC_REPRESENTATION_CONTEXT(3)
GLOBAL_UNCERTAINTY_ASSIGNED_CONTEXT((#839))
GLOBAL_UNIT_ASSIGNED_CONTEXT((#843,#845,#846))
REPRESENTATION_CONTEXT('','3D')
);
#842=(
GEOMETRIC_REPRESENTATION_CONTEXT(3)
GLOBAL_UNCERTAINTY_ASSIGNED_CONTEXT((#840))
GLOBAL_UNIT_ASSIGNED_CONTEXT((#843,#845,#846))
REPRESENTATION_CONTEXT('','3D')
);
#843=(
LENGTH_UNIT()
NAMED_UNIT(*)
SI_UNIT(.MILLI.,.METRE.)
);
#844=(
LENGTH_UNIT()
NAMED_UNIT(*)
SI_UNIT($,.METRE.)
);
#845=(
NAMED_UNIT(*)
PLANE_ANGLE_UNIT()
SI_UNIT($,.RADIAN.)
);
#846=(
NAMED_UNIT(*)
SI_UNIT($,.STERADIAN.)
SOLID_ANGLE_UNIT()
);
#847=SHAPE_DEFINITION_REPRESENTATION(#848,#849);
#848=PRODUCT_DEFINITION_SHAPE('',$,#851);
#849=SHAPE_REPRESENTATION('',(#487),#841);
#850=PRODUCT_DEFINITION_CONTEXT('part definition',#855,'design');
#851=PRODUCT_DEFINITION('2026-09-08-16-15-18-506','21_HUB_Hip_Output',#852,
#850);
#852=PRODUCT_DEFINITION_FORMATION('',$,#857);
#853=PRODUCT_RELATED_PRODUCT_CATEGORY('21_HUB_Hip_Output',
'21_HUB_Hip_Output',(#857));
#854=APPLICATION_PROTOCOL_DEFINITION('international standard',
'automotive_design',2009,#855);
#855=APPLICATION_CONTEXT(
'Core Data for Automotive Mechanical Design Process');
#856=PRODUCT_CONTEXT('part definition',#855,'mechanical');
#857=PRODUCT('2026-09-08-16-15-18-506','21_HUB_Hip_Output',$,(#856));
#858=PRESENTATION_STYLE_ASSIGNMENT((#859));
#859=SURFACE_STYLE_USAGE(.BOTH.,#860);
#860=SURFACE_SIDE_STYLE('',(#861));
#861=SURFACE_STYLE_FILL_AREA(#862);
#862=FILL_AREA_STYLE('\X2\AC15CCA0\X0\ - \X2\C0C8D2F4\X0\',(#863));
#863=FILL_AREA_STYLE_COLOUR('\X2\AC15CCA0\X0\ - \X2\C0C8D2F4\X0\',#864);
#864=COLOUR_RGB('\X2\AC15CCA0\X0\ - \X2\C0C8D2F4\X0\',0.627450980392157,
0.627450980392157,0.627450980392157);
ENDSEC;
END-ISO-10303-21;
