ISO-10303-21;
HEADER;
/* Generated by software containing ST-Developer
 * from STEP Tools, Inc. (www.steptools.com) 
 */

FILE_DESCRIPTION(
/* description */ (''),
/* implementation_level */ '2;1');

FILE_NAME(
/* name */ '22_MNT_AK45_Ring.step',
/* time_stamp */ '2026-09-08T16:15:18+09:00',
/* author */ (''),
/* organization */ (''),
/* preprocessor_version */ 'ST-DEVELOPER v20.2',
/* originating_system */ 'Autodesk Translation Framework v15.15.0.0',
/* authorisation */ '');

FILE_SCHEMA (('AUTOMOTIVE_DESIGN { 1 0 10303 214 3 1 1 }'));
ENDSEC;

DATA;
#10=MECHANICAL_DESIGN_GEOMETRIC_PRESENTATION_REPRESENTATION('',(#13),#593);
#11=SHAPE_REPRESENTATION_RELATIONSHIP('SRR','None',#600,#12);
#12=ADVANCED_BREP_SHAPE_REPRESENTATION('',(#14),#592);
#13=STYLED_ITEM('',(#609),#14);
#14=MANIFOLD_SOLID_BREP('ak45_mount_ring',#341);
#15=FACE_BOUND('',#61,.T.);
#16=FACE_BOUND('',#62,.T.);
#17=FACE_BOUND('',#63,.T.);
#18=FACE_BOUND('',#64,.T.);
#19=FACE_BOUND('',#65,.T.);
#20=FACE_BOUND('',#66,.T.);
#21=FACE_BOUND('',#67,.T.);
#22=FACE_BOUND('',#68,.T.);
#23=FACE_BOUND('',#69,.T.);
#24=FACE_BOUND('',#70,.T.);
#25=FACE_BOUND('',#71,.T.);
#26=FACE_BOUND('',#72,.T.);
#27=FACE_BOUND('',#73,.T.);
#28=FACE_BOUND('',#75,.T.);
#29=FACE_BOUND('',#76,.T.);
#30=FACE_BOUND('',#77,.T.);
#31=FACE_BOUND('',#78,.T.);
#32=FACE_BOUND('',#79,.T.);
#33=FACE_BOUND('',#80,.T.);
#34=FACE_BOUND('',#81,.T.);
#35=FACE_BOUND('',#82,.T.);
#36=FACE_BOUND('',#83,.T.);
#37=FACE_BOUND('',#84,.T.);
#38=FACE_BOUND('',#85,.T.);
#39=FACE_BOUND('',#86,.T.);
#40=FACE_BOUND('',#87,.T.);
#41=PLANE('',#358);
#42=PLANE('',#372);
#43=FACE_OUTER_BOUND('',#59,.T.);
#44=FACE_OUTER_BOUND('',#60,.T.);
#45=FACE_OUTER_BOUND('',#74,.T.);
#46=FACE_OUTER_BOUND('',#88,.T.);
#47=FACE_OUTER_BOUND('',#89,.T.);
#48=FACE_OUTER_BOUND('',#90,.T.);
#49=FACE_OUTER_BOUND('',#91,.T.);
#50=FACE_OUTER_BOUND('',#92,.T.);
#51=FACE_OUTER_BOUND('',#93,.T.);
#52=FACE_OUTER_BOUND('',#94,.T.);
#53=FACE_OUTER_BOUND('',#95,.T.);
#54=FACE_OUTER_BOUND('',#96,.T.);
#55=FACE_OUTER_BOUND('',#97,.T.);
#56=FACE_OUTER_BOUND('',#98,.T.);
#57=FACE_OUTER_BOUND('',#99,.T.);
#58=FACE_OUTER_BOUND('',#100,.T.);
#59=EDGE_LOOP('',(#227,#228,#229,#230));
#60=EDGE_LOOP('',(#231));
#61=EDGE_LOOP('',(#232));
#62=EDGE_LOOP('',(#233));
#63=EDGE_LOOP('',(#234));
#64=EDGE_LOOP('',(#235));
#65=EDGE_LOOP('',(#236));
#66=EDGE_LOOP('',(#237));
#67=EDGE_LOOP('',(#238));
#68=EDGE_LOOP('',(#239));
#69=EDGE_LOOP('',(#240));
#70=EDGE_LOOP('',(#241));
#71=EDGE_LOOP('',(#242));
#72=EDGE_LOOP('',(#243));
#73=EDGE_LOOP('',(#244));
#74=EDGE_LOOP('',(#245));
#75=EDGE_LOOP('',(#246));
#76=EDGE_LOOP('',(#247));
#77=EDGE_LOOP('',(#248));
#78=EDGE_LOOP('',(#249));
#79=EDGE_LOOP('',(#250));
#80=EDGE_LOOP('',(#251));
#81=EDGE_LOOP('',(#252));
#82=EDGE_LOOP('',(#253));
#83=EDGE_LOOP('',(#254));
#84=EDGE_LOOP('',(#255));
#85=EDGE_LOOP('',(#256));
#86=EDGE_LOOP('',(#257));
#87=EDGE_LOOP('',(#258));
#88=EDGE_LOOP('',(#259,#260,#261,#262));
#89=EDGE_LOOP('',(#263,#264,#265,#266));
#90=EDGE_LOOP('',(#267,#268,#269,#270));
#91=EDGE_LOOP('',(#271,#272,#273,#274));
#92=EDGE_LOOP('',(#275,#276,#277,#278));
#93=EDGE_LOOP('',(#279,#280,#281,#282));
#94=EDGE_LOOP('',(#283,#284,#285,#286));
#95=EDGE_LOOP('',(#287,#288,#289,#290));
#96=EDGE_LOOP('',(#291,#292,#293,#294));
#97=EDGE_LOOP('',(#295,#296,#297,#298));
#98=EDGE_LOOP('',(#299,#300,#301,#302));
#99=EDGE_LOOP('',(#303,#304,#305,#306));
#100=EDGE_LOOP('',(#307,#308,#309,#310));
#101=LINE('',#508,#115);
#102=LINE('',#565,#116);
#103=LINE('',#567,#117);
#104=LINE('',#569,#118);
#105=LINE('',#571,#119);
#106=LINE('',#573,#120);
#107=LINE('',#575,#121);
#108=LINE('',#577,#122);
#109=LINE('',#579,#123);
#110=LINE('',#581,#124);
#111=LINE('',#583,#125);
#112=LINE('',#585,#126);
#113=LINE('',#587,#127);
#114=LINE('',#589,#128);
#115=VECTOR('',#405,34.);
#116=VECTOR('',#466,2.25);
#117=VECTOR('',#469,2.25);
#118=VECTOR('',#472,2.25);
#119=VECTOR('',#475,2.25);
#120=VECTOR('',#478,2.25);
#121=VECTOR('',#481,2.25);
#122=VECTOR('',#484,1.7);
#123=VECTOR('',#487,1.7);
#124=VECTOR('',#490,1.7);
#125=VECTOR('',#493,1.7);
#126=VECTOR('',#496,1.7);
#127=VECTOR('',#499,1.7);
#128=VECTOR('',#502,19.);
#129=CIRCLE('',#356,34.);
#130=CIRCLE('',#357,34.);
#131=CIRCLE('',#359,2.25);
#132=CIRCLE('',#360,2.25);
#133=CIRCLE('',#361,2.25);
#134=CIRCLE('',#362,2.25);
#135=CIRCLE('',#363,2.25);
#136=CIRCLE('',#364,2.25);
#137=CIRCLE('',#365,19.);
#138=CIRCLE('',#366,1.7);
#139=CIRCLE('',#367,1.7);
#140=CIRCLE('',#368,1.7);
#141=CIRCLE('',#369,1.7);
#142=CIRCLE('',#370,1.7);
#143=CIRCLE('',#371,1.7);
#144=CIRCLE('',#373,2.25);
#145=CIRCLE('',#374,2.25);
#146=CIRCLE('',#375,2.25);
#147=CIRCLE('',#376,2.25);
#148=CIRCLE('',#377,2.25);
#149=CIRCLE('',#378,2.25);
#150=CIRCLE('',#379,19.);
#151=CIRCLE('',#380,1.7);
#152=CIRCLE('',#381,1.7);
#153=CIRCLE('',#382,1.7);
#154=CIRCLE('',#383,1.7);
#155=CIRCLE('',#384,1.7);
#156=CIRCLE('',#385,1.7);
#157=VERTEX_POINT('',#505);
#158=VERTEX_POINT('',#507);
#159=VERTEX_POINT('',#511);
#160=VERTEX_POINT('',#513);
#161=VERTEX_POINT('',#515);
#162=VERTEX_POINT('',#517);
#163=VERTEX_POINT('',#519);
#164=VERTEX_POINT('',#521);
#165=VERTEX_POINT('',#523);
#166=VERTEX_POINT('',#525);
#167=VERTEX_POINT('',#527);
#168=VERTEX_POINT('',#529);
#169=VERTEX_POINT('',#531);
#170=VERTEX_POINT('',#533);
#171=VERTEX_POINT('',#535);
#172=VERTEX_POINT('',#538);
#173=VERTEX_POINT('',#540);
#174=VERTEX_POINT('',#542);
#175=VERTEX_POINT('',#544);
#176=VERTEX_POINT('',#546);
#177=VERTEX_POINT('',#548);
#178=VERTEX_POINT('',#550);
#179=VERTEX_POINT('',#552);
#180=VERTEX_POINT('',#554);
#181=VERTEX_POINT('',#556);
#182=VERTEX_POINT('',#558);
#183=VERTEX_POINT('',#560);
#184=VERTEX_POINT('',#562);
#185=EDGE_CURVE('',#157,#157,#129,.T.);
#186=EDGE_CURVE('',#157,#158,#101,.T.);
#187=EDGE_CURVE('',#158,#158,#130,.T.);
#188=EDGE_CURVE('',#159,#159,#131,.T.);
#189=EDGE_CURVE('',#160,#160,#132,.T.);
#190=EDGE_CURVE('',#161,#161,#133,.T.);
#191=EDGE_CURVE('',#162,#162,#134,.T.);
#192=EDGE_CURVE('',#163,#163,#135,.T.);
#193=EDGE_CURVE('',#164,#164,#136,.T.);
#194=EDGE_CURVE('',#165,#165,#137,.T.);
#195=EDGE_CURVE('',#166,#166,#138,.T.);
#196=EDGE_CURVE('',#167,#167,#139,.T.);
#197=EDGE_CURVE('',#168,#168,#140,.T.);
#198=EDGE_CURVE('',#169,#169,#141,.T.);
#199=EDGE_CURVE('',#170,#170,#142,.T.);
#200=EDGE_CURVE('',#171,#171,#143,.T.);
#201=EDGE_CURVE('',#172,#172,#144,.T.);
#202=EDGE_CURVE('',#173,#173,#145,.T.);
#203=EDGE_CURVE('',#174,#174,#146,.T.);
#204=EDGE_CURVE('',#175,#175,#147,.T.);
#205=EDGE_CURVE('',#176,#176,#148,.T.);
#206=EDGE_CURVE('',#177,#177,#149,.T.);
#207=EDGE_CURVE('',#178,#178,#150,.T.);
#208=EDGE_CURVE('',#179,#179,#151,.T.);
#209=EDGE_CURVE('',#180,#180,#152,.T.);
#210=EDGE_CURVE('',#181,#181,#153,.T.);
#211=EDGE_CURVE('',#182,#182,#154,.T.);
#212=EDGE_CURVE('',#183,#183,#155,.T.);
#213=EDGE_CURVE('',#184,#184,#156,.T.);
#214=EDGE_CURVE('',#172,#159,#102,.T.);
#215=EDGE_CURVE('',#173,#160,#103,.T.);
#216=EDGE_CURVE('',#174,#161,#104,.T.);
#217=EDGE_CURVE('',#175,#162,#105,.T.);
#218=EDGE_CURVE('',#176,#163,#106,.T.);
#219=EDGE_CURVE('',#177,#164,#107,.T.);
#220=EDGE_CURVE('',#184,#171,#108,.T.);
#221=EDGE_CURVE('',#183,#170,#109,.T.);
#222=EDGE_CURVE('',#182,#169,#110,.T.);
#223=EDGE_CURVE('',#181,#168,#111,.T.);
#224=EDGE_CURVE('',#180,#167,#112,.T.);
#225=EDGE_CURVE('',#179,#166,#113,.T.);
#226=EDGE_CURVE('',#165,#178,#114,.T.);
#227=ORIENTED_EDGE('',*,*,#185,.F.);
#228=ORIENTED_EDGE('',*,*,#186,.T.);
#229=ORIENTED_EDGE('',*,*,#187,.F.);
#230=ORIENTED_EDGE('',*,*,#186,.F.);
#231=ORIENTED_EDGE('',*,*,#187,.T.);
#232=ORIENTED_EDGE('',*,*,#188,.T.);
#233=ORIENTED_EDGE('',*,*,#189,.T.);
#234=ORIENTED_EDGE('',*,*,#190,.T.);
#235=ORIENTED_EDGE('',*,*,#191,.T.);
#236=ORIENTED_EDGE('',*,*,#192,.T.);
#237=ORIENTED_EDGE('',*,*,#193,.T.);
#238=ORIENTED_EDGE('',*,*,#194,.T.);
#239=ORIENTED_EDGE('',*,*,#195,.T.);
#240=ORIENTED_EDGE('',*,*,#196,.T.);
#241=ORIENTED_EDGE('',*,*,#197,.T.);
#242=ORIENTED_EDGE('',*,*,#198,.T.);
#243=ORIENTED_EDGE('',*,*,#199,.T.);
#244=ORIENTED_EDGE('',*,*,#200,.T.);
#245=ORIENTED_EDGE('',*,*,#185,.T.);
#246=ORIENTED_EDGE('',*,*,#201,.T.);
#247=ORIENTED_EDGE('',*,*,#202,.T.);
#248=ORIENTED_EDGE('',*,*,#203,.T.);
#249=ORIENTED_EDGE('',*,*,#204,.T.);
#250=ORIENTED_EDGE('',*,*,#205,.T.);
#251=ORIENTED_EDGE('',*,*,#206,.T.);
#252=ORIENTED_EDGE('',*,*,#207,.F.);
#253=ORIENTED_EDGE('',*,*,#208,.T.);
#254=ORIENTED_EDGE('',*,*,#209,.T.);
#255=ORIENTED_EDGE('',*,*,#210,.T.);
#256=ORIENTED_EDGE('',*,*,#211,.T.);
#257=ORIENTED_EDGE('',*,*,#212,.T.);
#258=ORIENTED_EDGE('',*,*,#213,.T.);
#259=ORIENTED_EDGE('',*,*,#201,.F.);
#260=ORIENTED_EDGE('',*,*,#214,.T.);
#261=ORIENTED_EDGE('',*,*,#188,.F.);
#262=ORIENTED_EDGE('',*,*,#214,.F.);
#263=ORIENTED_EDGE('',*,*,#202,.F.);
#264=ORIENTED_EDGE('',*,*,#215,.T.);
#265=ORIENTED_EDGE('',*,*,#189,.F.);
#266=ORIENTED_EDGE('',*,*,#215,.F.);
#267=ORIENTED_EDGE('',*,*,#203,.F.);
#268=ORIENTED_EDGE('',*,*,#216,.T.);
#269=ORIENTED_EDGE('',*,*,#190,.F.);
#270=ORIENTED_EDGE('',*,*,#216,.F.);
#271=ORIENTED_EDGE('',*,*,#204,.F.);
#272=ORIENTED_EDGE('',*,*,#217,.T.);
#273=ORIENTED_EDGE('',*,*,#191,.F.);
#274=ORIENTED_EDGE('',*,*,#217,.F.);
#275=ORIENTED_EDGE('',*,*,#205,.F.);
#276=ORIENTED_EDGE('',*,*,#218,.T.);
#277=ORIENTED_EDGE('',*,*,#192,.F.);
#278=ORIENTED_EDGE('',*,*,#218,.F.);
#279=ORIENTED_EDGE('',*,*,#206,.F.);
#280=ORIENTED_EDGE('',*,*,#219,.T.);
#281=ORIENTED_EDGE('',*,*,#193,.F.);
#282=ORIENTED_EDGE('',*,*,#219,.F.);
#283=ORIENTED_EDGE('',*,*,#213,.F.);
#284=ORIENTED_EDGE('',*,*,#220,.T.);
#285=ORIENTED_EDGE('',*,*,#200,.F.);
#286=ORIENTED_EDGE('',*,*,#220,.F.);
#287=ORIENTED_EDGE('',*,*,#212,.F.);
#288=ORIENTED_EDGE('',*,*,#221,.T.);
#289=ORIENTED_EDGE('',*,*,#199,.F.);
#290=ORIENTED_EDGE('',*,*,#221,.F.);
#291=ORIENTED_EDGE('',*,*,#211,.F.);
#292=ORIENTED_EDGE('',*,*,#222,.T.);
#293=ORIENTED_EDGE('',*,*,#198,.F.);
#294=ORIENTED_EDGE('',*,*,#222,.F.);
#295=ORIENTED_EDGE('',*,*,#210,.F.);
#296=ORIENTED_EDGE('',*,*,#223,.T.);
#297=ORIENTED_EDGE('',*,*,#197,.F.);
#298=ORIENTED_EDGE('',*,*,#223,.F.);
#299=ORIENTED_EDGE('',*,*,#209,.F.);
#300=ORIENTED_EDGE('',*,*,#224,.T.);
#301=ORIENTED_EDGE('',*,*,#196,.F.);
#302=ORIENTED_EDGE('',*,*,#224,.F.);
#303=ORIENTED_EDGE('',*,*,#208,.F.);
#304=ORIENTED_EDGE('',*,*,#225,.T.);
#305=ORIENTED_EDGE('',*,*,#195,.F.);
#306=ORIENTED_EDGE('',*,*,#225,.F.);
#307=ORIENTED_EDGE('',*,*,#194,.F.);
#308=ORIENTED_EDGE('',*,*,#226,.T.);
#309=ORIENTED_EDGE('',*,*,#207,.T.);
#310=ORIENTED_EDGE('',*,*,#226,.F.);
#311=CYLINDRICAL_SURFACE('',#355,34.);
#312=CYLINDRICAL_SURFACE('',#386,2.25);
#313=CYLINDRICAL_SURFACE('',#387,2.25);
#314=CYLINDRICAL_SURFACE('',#388,2.25);
#315=CYLINDRICAL_SURFACE('',#389,2.25);
#316=CYLINDRICAL_SURFACE('',#390,2.25);
#317=CYLINDRICAL_SURFACE('',#391,2.25);
#318=CYLINDRICAL_SURFACE('',#392,1.7);
#319=CYLINDRICAL_SURFACE('',#393,1.7);
#320=CYLINDRICAL_SURFACE('',#394,1.7);
#321=CYLINDRICAL_SURFACE('',#395,1.7);
#322=CYLINDRICAL_SURFACE('',#396,1.7);
#323=CYLINDRICAL_SURFACE('',#397,1.7);
#324=CYLINDRICAL_SURFACE('',#398,19.);
#325=ADVANCED_FACE('',(#43),#311,.T.);
#326=ADVANCED_FACE('',(#44,#15,#16,#17,#18,#19,#20,#21,#22,#23,#24,#25,
#26,#27),#41,.T.);
#327=ADVANCED_FACE('',(#45,#28,#29,#30,#31,#32,#33,#34,#35,#36,#37,#38,
#39,#40),#42,.F.);
#328=ADVANCED_FACE('',(#46),#312,.F.);
#329=ADVANCED_FACE('',(#47),#313,.F.);
#330=ADVANCED_FACE('',(#48),#314,.F.);
#331=ADVANCED_FACE('',(#49),#315,.F.);
#332=ADVANCED_FACE('',(#50),#316,.F.);
#333=ADVANCED_FACE('',(#51),#317,.F.);
#334=ADVANCED_FACE('',(#52),#318,.F.);
#335=ADVANCED_FACE('',(#53),#319,.F.);
#336=ADVANCED_FACE('',(#54),#320,.F.);
#337=ADVANCED_FACE('',(#55),#321,.F.);
#338=ADVANCED_FACE('',(#56),#322,.F.);
#339=ADVANCED_FACE('',(#57),#323,.F.);
#340=ADVANCED_FACE('',(#58),#324,.F.);
#341=CLOSED_SHELL('',(#325,#326,#327,#328,#329,#330,#331,#332,#333,#334,
#335,#336,#337,#338,#339,#340));
#342=DERIVED_UNIT_ELEMENT(#344,1.);
#343=DERIVED_UNIT_ELEMENT(#595,-3.);
#344=(
MASS_UNIT()
NAMED_UNIT(*)
SI_UNIT(.KILO.,.GRAM.)
);
#345=DERIVED_UNIT((#342,#343));
#346=MEASURE_REPRESENTATION_ITEM('density measure',
POSITIVE_RATIO_MEASURE(7850.),#345);
#347=PROPERTY_DEFINITION_REPRESENTATION(#352,#349);
#348=PROPERTY_DEFINITION_REPRESENTATION(#353,#350);
#349=REPRESENTATION('material name',(#351),#592);
#350=REPRESENTATION('density',(#346),#592);
#351=DESCRIPTIVE_REPRESENTATION_ITEM('\X2\AC15CCA0\X0\','\X2\AC15CCA0\X0\');
#352=PROPERTY_DEFINITION('material property','material name',#602);
#353=PROPERTY_DEFINITION('material property','density of part',#602);
#354=AXIS2_PLACEMENT_3D('',#503,#399,#400);
#355=AXIS2_PLACEMENT_3D('',#504,#401,#402);
#356=AXIS2_PLACEMENT_3D('',#506,#403,#404);
#357=AXIS2_PLACEMENT_3D('',#509,#406,#407);
#358=AXIS2_PLACEMENT_3D('',#510,#408,#409);
#359=AXIS2_PLACEMENT_3D('',#512,#410,#411);
#360=AXIS2_PLACEMENT_3D('',#514,#412,#413);
#361=AXIS2_PLACEMENT_3D('',#516,#414,#415);
#362=AXIS2_PLACEMENT_3D('',#518,#416,#417);
#363=AXIS2_PLACEMENT_3D('',#520,#418,#419);
#364=AXIS2_PLACEMENT_3D('',#522,#420,#421);
#365=AXIS2_PLACEMENT_3D('',#524,#422,#423);
#366=AXIS2_PLACEMENT_3D('',#526,#424,#425);
#367=AXIS2_PLACEMENT_3D('',#528,#426,#427);
#368=AXIS2_PLACEMENT_3D('',#530,#428,#429);
#369=AXIS2_PLACEMENT_3D('',#532,#430,#431);
#370=AXIS2_PLACEMENT_3D('',#534,#432,#433);
#371=AXIS2_PLACEMENT_3D('',#536,#434,#435);
#372=AXIS2_PLACEMENT_3D('',#537,#436,#437);
#373=AXIS2_PLACEMENT_3D('',#539,#438,#439);
#374=AXIS2_PLACEMENT_3D('',#541,#440,#441);
#375=AXIS2_PLACEMENT_3D('',#543,#442,#443);
#376=AXIS2_PLACEMENT_3D('',#545,#444,#445);
#377=AXIS2_PLACEMENT_3D('',#547,#446,#447);
#378=AXIS2_PLACEMENT_3D('',#549,#448,#449);
#379=AXIS2_PLACEMENT_3D('',#551,#450,#451);
#380=AXIS2_PLACEMENT_3D('',#553,#452,#453);
#381=AXIS2_PLACEMENT_3D('',#555,#454,#455);
#382=AXIS2_PLACEMENT_3D('',#557,#456,#457);
#383=AXIS2_PLACEMENT_3D('',#559,#458,#459);
#384=AXIS2_PLACEMENT_3D('',#561,#460,#461);
#385=AXIS2_PLACEMENT_3D('',#563,#462,#463);
#386=AXIS2_PLACEMENT_3D('',#564,#464,#465);
#387=AXIS2_PLACEMENT_3D('',#566,#467,#468);
#388=AXIS2_PLACEMENT_3D('',#568,#470,#471);
#389=AXIS2_PLACEMENT_3D('',#570,#473,#474);
#390=AXIS2_PLACEMENT_3D('',#572,#476,#477);
#391=AXIS2_PLACEMENT_3D('',#574,#479,#480);
#392=AXIS2_PLACEMENT_3D('',#576,#482,#483);
#393=AXIS2_PLACEMENT_3D('',#578,#485,#486);
#394=AXIS2_PLACEMENT_3D('',#580,#488,#489);
#395=AXIS2_PLACEMENT_3D('',#582,#491,#492);
#396=AXIS2_PLACEMENT_3D('',#584,#494,#495);
#397=AXIS2_PLACEMENT_3D('',#586,#497,#498);
#398=AXIS2_PLACEMENT_3D('',#588,#500,#501);
#399=DIRECTION('axis',(0.,0.,1.));
#400=DIRECTION('refdir',(1.,0.,0.));
#401=DIRECTION('center_axis',(1.,0.,0.));
#402=DIRECTION('ref_axis',(0.,0.,-1.));
#403=DIRECTION('center_axis',(-1.,0.,0.));
#404=DIRECTION('ref_axis',(0.,0.,-1.));
#405=DIRECTION('',(1.,0.,0.));
#406=DIRECTION('center_axis',(1.,0.,0.));
#407=DIRECTION('ref_axis',(0.,0.,-1.));
#408=DIRECTION('center_axis',(1.,0.,0.));
#409=DIRECTION('ref_axis',(0.,0.,-1.));
#410=DIRECTION('center_axis',(-1.,0.,0.));
#411=DIRECTION('ref_axis',(0.,0.,-1.));
#412=DIRECTION('center_axis',(-1.,0.,0.));
#413=DIRECTION('ref_axis',(0.,0.,-1.));
#414=DIRECTION('center_axis',(-1.,0.,0.));
#415=DIRECTION('ref_axis',(0.,0.,-1.));
#416=DIRECTION('center_axis',(-1.,0.,0.));
#417=DIRECTION('ref_axis',(0.,0.,-1.));
#418=DIRECTION('center_axis',(-1.,0.,0.));
#419=DIRECTION('ref_axis',(0.,0.,-1.));
#420=DIRECTION('center_axis',(-1.,0.,0.));
#421=DIRECTION('ref_axis',(0.,0.,-1.));
#422=DIRECTION('center_axis',(-1.,0.,0.));
#423=DIRECTION('ref_axis',(0.,0.,-1.));
#424=DIRECTION('center_axis',(-1.,0.,0.));
#425=DIRECTION('ref_axis',(0.,0.,-1.));
#426=DIRECTION('center_axis',(-1.,0.,0.));
#427=DIRECTION('ref_axis',(0.,0.,-1.));
#428=DIRECTION('center_axis',(-1.,0.,0.));
#429=DIRECTION('ref_axis',(0.,0.,-1.));
#430=DIRECTION('center_axis',(-1.,0.,0.));
#431=DIRECTION('ref_axis',(0.,0.,-1.));
#432=DIRECTION('center_axis',(-1.,0.,0.));
#433=DIRECTION('ref_axis',(0.,0.,-1.));
#434=DIRECTION('center_axis',(-1.,0.,0.));
#435=DIRECTION('ref_axis',(0.,0.,-1.));
#436=DIRECTION('center_axis',(1.,0.,0.));
#437=DIRECTION('ref_axis',(0.,0.,-1.));
#438=DIRECTION('center_axis',(1.,0.,0.));
#439=DIRECTION('ref_axis',(0.,0.,-1.));
#440=DIRECTION('center_axis',(1.,0.,0.));
#441=DIRECTION('ref_axis',(0.,0.,-1.));
#442=DIRECTION('center_axis',(1.,0.,0.));
#443=DIRECTION('ref_axis',(0.,0.,-1.));
#444=DIRECTION('center_axis',(1.,0.,0.));
#445=DIRECTION('ref_axis',(0.,0.,-1.));
#446=DIRECTION('center_axis',(1.,0.,0.));
#447=DIRECTION('ref_axis',(0.,0.,-1.));
#448=DIRECTION('center_axis',(1.,0.,0.));
#449=DIRECTION('ref_axis',(0.,0.,-1.));
#450=DIRECTION('center_axis',(-1.,0.,0.));
#451=DIRECTION('ref_axis',(0.,0.,-1.));
#452=DIRECTION('center_axis',(1.,0.,0.));
#453=DIRECTION('ref_axis',(0.,0.,-1.));
#454=DIRECTION('center_axis',(1.,0.,0.));
#455=DIRECTION('ref_axis',(0.,0.,-1.));
#456=DIRECTION('center_axis',(1.,0.,0.));
#457=DIRECTION('ref_axis',(0.,0.,-1.));
#458=DIRECTION('center_axis',(1.,0.,0.));
#459=DIRECTION('ref_axis',(0.,0.,-1.));
#460=DIRECTION('center_axis',(1.,0.,0.));
#461=DIRECTION('ref_axis',(0.,0.,-1.));
#462=DIRECTION('center_axis',(1.,0.,0.));
#463=DIRECTION('ref_axis',(0.,0.,-1.));
#464=DIRECTION('center_axis',(1.,0.,0.));
#465=DIRECTION('ref_axis',(0.,0.,-1.));
#466=DIRECTION('',(1.,0.,0.));
#467=DIRECTION('center_axis',(1.,0.,0.));
#468=DIRECTION('ref_axis',(0.,0.,-1.));
#469=DIRECTION('',(1.,0.,0.));
#470=DIRECTION('center_axis',(1.,0.,0.));
#471=DIRECTION('ref_axis',(0.,0.,-1.));
#472=DIRECTION('',(1.,0.,0.));
#473=DIRECTION('center_axis',(1.,0.,0.));
#474=DIRECTION('ref_axis',(0.,0.,-1.));
#475=DIRECTION('',(1.,0.,0.));
#476=DIRECTION('center_axis',(1.,0.,0.));
#477=DIRECTION('ref_axis',(0.,0.,-1.));
#478=DIRECTION('',(1.,0.,0.));
#479=DIRECTION('center_axis',(1.,0.,0.));
#480=DIRECTION('ref_axis',(0.,0.,-1.));
#481=DIRECTION('',(1.,0.,0.));
#482=DIRECTION('center_axis',(1.,0.,0.));
#483=DIRECTION('ref_axis',(0.,0.,-1.));
#484=DIRECTION('',(1.,0.,0.));
#485=DIRECTION('center_axis',(1.,0.,0.));
#486=DIRECTION('ref_axis',(0.,0.,-1.));
#487=DIRECTION('',(1.,0.,0.));
#488=DIRECTION('center_axis',(1.,0.,0.));
#489=DIRECTION('ref_axis',(0.,0.,-1.));
#490=DIRECTION('',(1.,0.,0.));
#491=DIRECTION('center_axis',(1.,0.,0.));
#492=DIRECTION('ref_axis',(0.,0.,-1.));
#493=DIRECTION('',(1.,0.,0.));
#494=DIRECTION('center_axis',(1.,0.,0.));
#495=DIRECTION('ref_axis',(0.,0.,-1.));
#496=DIRECTION('',(1.,0.,0.));
#497=DIRECTION('center_axis',(1.,0.,0.));
#498=DIRECTION('ref_axis',(0.,0.,-1.));
#499=DIRECTION('',(1.,0.,0.));
#500=DIRECTION('center_axis',(1.,0.,0.));
#501=DIRECTION('ref_axis',(0.,0.,-1.));
#502=DIRECTION('',(-1.,0.,0.));
#503=CARTESIAN_POINT('',(0.,0.,0.));
#504=CARTESIAN_POINT('Origin',(0.,0.,0.));
#505=CARTESIAN_POINT('',(0.,-4.163799117101E-15,34.));
#506=CARTESIAN_POINT('Origin',(0.,0.,0.));
#507=CARTESIAN_POINT('',(5.,-4.163799117101E-15,34.));
#508=CARTESIAN_POINT('',(0.,-4.163799117101E-15,34.));
#509=CARTESIAN_POINT('Origin',(5.,0.,0.));
#510=CARTESIAN_POINT('Origin',(5.,0.,0.));
#511=CARTESIAN_POINT('',(5.,-5.78645612597124E-15,-27.75));
#512=CARTESIAN_POINT('Origin',(5.,-5.51091059616309E-15,-30.));
#513=CARTESIAN_POINT('',(5.,25.9807621135332,17.25));
#514=CARTESIAN_POINT('Origin',(5.,25.9807621135332,15.));
#515=CARTESIAN_POINT('',(5.,1.56142466891288E-15,32.25));
#516=CARTESIAN_POINT('Origin',(5.,1.83697019872103E-15,30.));
#517=CARTESIAN_POINT('',(5.,-25.9807621135332,17.25));
#518=CARTESIAN_POINT('Origin',(5.,-25.9807621135332,15.));
#519=CARTESIAN_POINT('',(5.,-25.9807621135332,-12.75));
#520=CARTESIAN_POINT('Origin',(5.,-25.9807621135332,-15.));
#521=CARTESIAN_POINT('',(5.,25.9807621135332,-12.75));
#522=CARTESIAN_POINT('Origin',(5.,25.9807621135332,-15.));
#523=CARTESIAN_POINT('',(5.,-2.32682891837997E-15,19.));
#524=CARTESIAN_POINT('Origin',(5.,0.,0.));
#525=CARTESIAN_POINT('',(5.,12.,-19.0846096908265));
#526=CARTESIAN_POINT('Origin',(5.,12.,-20.7846096908265));
#527=CARTESIAN_POINT('',(5.,-24.,1.7));
#528=CARTESIAN_POINT('Origin',(5.,-24.,2.93915231795365E-15));
#529=CARTESIAN_POINT('',(5.,-12.,22.4846096908265));
#530=CARTESIAN_POINT('Origin',(5.,-12.,20.7846096908265));
#531=CARTESIAN_POINT('',(5.,12.,22.4846096908265));
#532=CARTESIAN_POINT('Origin',(5.,12.,20.7846096908265));
#533=CARTESIAN_POINT('',(5.,24.,1.7));
#534=CARTESIAN_POINT('Origin',(5.,24.,0.));
#535=CARTESIAN_POINT('',(5.,-12.,-19.0846096908265));
#536=CARTESIAN_POINT('Origin',(5.,-12.,-20.7846096908265));
#537=CARTESIAN_POINT('Origin',(0.,0.,0.));
#538=CARTESIAN_POINT('',(0.,-5.78645612597124E-15,-27.75));
#539=CARTESIAN_POINT('Origin',(0.,-5.51091059616309E-15,-30.));
#540=CARTESIAN_POINT('',(0.,25.9807621135332,17.25));
#541=CARTESIAN_POINT('Origin',(0.,25.9807621135332,15.));
#542=CARTESIAN_POINT('',(0.,1.56142466891288E-15,32.25));
#543=CARTESIAN_POINT('Origin',(0.,1.83697019872103E-15,30.));
#544=CARTESIAN_POINT('',(0.,-25.9807621135332,17.25));
#545=CARTESIAN_POINT('Origin',(0.,-25.9807621135332,15.));
#546=CARTESIAN_POINT('',(0.,-25.9807621135332,-12.75));
#547=CARTESIAN_POINT('Origin',(0.,-25.9807621135332,-15.));
#548=CARTESIAN_POINT('',(0.,25.9807621135332,-12.75));
#549=CARTESIAN_POINT('Origin',(0.,25.9807621135332,-15.));
#550=CARTESIAN_POINT('',(0.,-2.32682891837997E-15,19.));
#551=CARTESIAN_POINT('Origin',(0.,0.,0.));
#552=CARTESIAN_POINT('',(0.,12.,-19.0846096908265));
#553=CARTESIAN_POINT('Origin',(0.,12.,-20.7846096908265));
#554=CARTESIAN_POINT('',(0.,-24.,1.7));
#555=CARTESIAN_POINT('Origin',(0.,-24.,2.93915231795365E-15));
#556=CARTESIAN_POINT('',(0.,-12.,22.4846096908265));
#557=CARTESIAN_POINT('Origin',(0.,-12.,20.7846096908265));
#558=CARTESIAN_POINT('',(0.,12.,22.4846096908265));
#559=CARTESIAN_POINT('Origin',(0.,12.,20.7846096908265));
#560=CARTESIAN_POINT('',(0.,24.,1.7));
#561=CARTESIAN_POINT('Origin',(0.,24.,0.));
#562=CARTESIAN_POINT('',(0.,-12.,-19.0846096908265));
#563=CARTESIAN_POINT('Origin',(0.,-12.,-20.7846096908265));
#564=CARTESIAN_POINT('Origin',(0.,-5.51091059616309E-15,-30.));
#565=CARTESIAN_POINT('',(0.,-5.78645612597124E-15,-27.75));
#566=CARTESIAN_POINT('Origin',(0.,25.9807621135332,15.));
#567=CARTESIAN_POINT('',(0.,25.9807621135332,17.25));
#568=CARTESIAN_POINT('Origin',(0.,1.83697019872103E-15,30.));
#569=CARTESIAN_POINT('',(0.,1.56142466891288E-15,32.25));
#570=CARTESIAN_POINT('Origin',(0.,-25.9807621135332,15.));
#571=CARTESIAN_POINT('',(0.,-25.9807621135332,17.25));
#572=CARTESIAN_POINT('Origin',(0.,-25.9807621135332,-15.));
#573=CARTESIAN_POINT('',(0.,-25.9807621135332,-12.75));
#574=CARTESIAN_POINT('Origin',(0.,25.9807621135332,-15.));
#575=CARTESIAN_POINT('',(0.,25.9807621135332,-12.75));
#576=CARTESIAN_POINT('Origin',(0.,-12.,-20.7846096908265));
#577=CARTESIAN_POINT('',(0.,-12.,-19.0846096908265));
#578=CARTESIAN_POINT('Origin',(0.,24.,0.));
#579=CARTESIAN_POINT('',(0.,24.,1.7));
#580=CARTESIAN_POINT('Origin',(0.,12.,20.7846096908265));
#581=CARTESIAN_POINT('',(0.,12.,22.4846096908265));
#582=CARTESIAN_POINT('Origin',(0.,-12.,20.7846096908265));
#583=CARTESIAN_POINT('',(0.,-12.,22.4846096908265));
#584=CARTESIAN_POINT('Origin',(0.,-24.,2.93915231795365E-15));
#585=CARTESIAN_POINT('',(0.,-24.,1.7));
#586=CARTESIAN_POINT('Origin',(0.,12.,-20.7846096908265));
#587=CARTESIAN_POINT('',(0.,12.,-19.0846096908265));
#588=CARTESIAN_POINT('Origin',(0.,0.,0.));
#589=CARTESIAN_POINT('',(0.,-2.32682891837997E-15,19.));
#590=UNCERTAINTY_MEASURE_WITH_UNIT(LENGTH_MEASURE(0.01),#594,
'DISTANCE_ACCURACY_VALUE',
'Maximum model space distance between geometric entities at asserted c
onnectivities');
#591=UNCERTAINTY_MEASURE_WITH_UNIT(LENGTH_MEASURE(0.01),#594,
'DISTANCE_ACCURACY_VALUE',
'Maximum model space distance between geometric entities at asserted c
onnectivities');
#592=(
GEOMETRIC_REPRESENTATION_CONTEXT(3)
GLOBAL_UNCERTAINTY_ASSIGNED_CONTEXT((#590))
GLOBAL_UNIT_ASSIGNED_CONTEXT((#594,#596,#597))
REPRESENTATION_CONTEXT('','3D')
);
#593=(
GEOMETRIC_REPRESENTATION_CONTEXT(3)
GLOBAL_UNCERTAINTY_ASSIGNED_CONTEXT((#591))
GLOBAL_UNIT_ASSIGNED_CONTEXT((#594,#596,#597))
REPRESENTATION_CONTEXT('','3D')
);
#594=(
LENGTH_UNIT()
NAMED_UNIT(*)
SI_UNIT(.MILLI.,.METRE.)
);
#595=(
LENGTH_UNIT()
NAMED_UNIT(*)
SI_UNIT($,.METRE.)
);
#596=(
NAMED_UNIT(*)
PLANE_ANGLE_UNIT()
SI_UNIT($,.RADIAN.)
);
#597=(
NAMED_UNIT(*)
SI_UNIT($,.STERADIAN.)
SOLID_ANGLE_UNIT()
);
#598=SHAPE_DEFINITION_REPRESENTATION(#599,#600);
#599=PRODUCT_DEFINITION_SHAPE('',$,#602);
#600=SHAPE_REPRESENTATION('',(#354),#592);
#601=PRODUCT_DEFINITION_CONTEXT('part definition',#606,'design');
#602=PRODUCT_DEFINITION('2026-09-08-16-15-18-857','22_MNT_AK45_Ring',#603,
#601);
#603=PRODUCT_DEFINITION_FORMATION('',$,#608);
#604=PRODUCT_RELATED_PRODUCT_CATEGORY('22_MNT_AK45_Ring',
'22_MNT_AK45_Ring',(#608));
#605=APPLICATION_PROTOCOL_DEFINITION('international standard',
'automotive_design',2009,#606);
#606=APPLICATION_CONTEXT(
'Core Data for Automotive Mechanical Design Process');
#607=PRODUCT_CONTEXT('part definition',#606,'mechanical');
#608=PRODUCT('2026-09-08-16-15-18-857','22_MNT_AK45_Ring',$,(#607));
#609=PRESENTATION_STYLE_ASSIGNMENT((#610));
#610=SURFACE_STYLE_USAGE(.BOTH.,#611);
#611=SURFACE_SIDE_STYLE('',(#612));
#612=SURFACE_STYLE_FILL_AREA(#613);
#613=FILL_AREA_STYLE('\X2\AC15CCA0\X0\ - \X2\C0C8D2F4\X0\',(#614));
#614=FILL_AREA_STYLE_COLOUR('\X2\AC15CCA0\X0\ - \X2\C0C8D2F4\X0\',#615);
#615=COLOUR_RGB('\X2\AC15CCA0\X0\ - \X2\C0C8D2F4\X0\',0.627450980392157,
0.627450980392157,0.627450980392157);
ENDSEC;
END-ISO-10303-21;
